# xmcd
#
# Track frame offsets: 
#        150
#        12235
#        24815
#        34867
#        50092
#        60672
#        72725
#        88377
#        102090
#        119962
#        130070
#        141560
#        151492
#        164515
#
# Disc length: 2324 seconds
#
# Revision: 0
# Processed by: cddbd v1.5.1PL0 Copyright (c) Steve Scherf et al.
# Submitted via: ExactAudioCopy v0.95a5
#
DISCID=d109120e
DTITLE=Various Artist - Dorfmusik
DYEAR=1900
DGENRE=Country
TTITLE0=Allacher Musikanten - Wem Gott will rechte Gunst erweisen
TTITLE1=Herbert Ferstl u s Tanzlmusi - Gigerl-Marsch
TTITLE2=Allacher Musikanten /Horch was kommt von draußen rein
TTITLE3=Herbert Ferstl u s Tanzlmusi - Bandl-Tanz
TTITLE4=Allacher Musikanten - Wohlauf noch getrunken
TTITLE5=Herbert Ferstl u s Tanlzmusi - Fränkische Dreher
TTITLE6=Allacher Musikanten - Im Kahlbergerdörfel
TTITLE7=Herbert Ferstl u s Tanzlmusi - Strohschneider-Polka
TTITLE8=Herbert Ferstl u s Tanzlmusi - Bayerischer Ländler
TTITLE9=Herbert Ferstl u s Tanzlmusi - Bocksbeutel-Schottisch
TTITLE10=Herbert Ferstl u s Tanzlmusi - Im Spritzenhaus
TTITLE11=Herbert Ferstl u s Kerwemusikanten - Beim Weinfest
TTITLE12=Herbert Ferstl u s Kerwemusikanten - Grattler-Polka
TTITLE13=Herbert Ferstl u s Kerwemusikanten - Dorfmusik
EXTD=
EXTT0=
EXTT1=
EXTT2=
EXTT3=
EXTT4=
EXTT5=
EXTT6=
EXTT7=
EXTT8=
EXTT9=
EXTT10=
EXTT11=
EXTT12=
EXTT13=
PLAYORDER=
